<svg width="542" height="507" viewBox="0 0 542 507" fill="none" xmlns="http://www.w3.org/2000/svg">
<g filter="url(#filter0_d_2001_7)">
<path d="M155.5 376.5C107.1 464.9 34.3333 495 4 499H414.5L528 17.5L538 0C495 2.83333 402.9 10.3 378.5 17.5C354.1 24.7 338.667 42.5 334 50.5L247.5 208.5C237 227.667 203.9 288.1 155.5 376.5Z" fill="url(#paint0_linear_2001_7)"/>
<path d="M155.5 376.5C107.1 464.9 34.3333 495 4 499H414.5L528 17.5L538 0C495 2.83333 402.9 10.3 378.5 17.5C354.1 24.7 338.667 42.5 334 50.5L247.5 208.5C237 227.667 203.9 288.1 155.5 376.5Z" stroke="#818CF8"/>
</g>
<defs>
<filter id="filter0_d_2001_7" x="0" y="0" width="542" height="507" filterUnits="userSpaceOnUse" color-interpolation-filters="sRGB">
<feFlood flood-opacity="0" result="BackgroundImageFix"/>
<feColorMatrix in="SourceAlpha" type="matrix" values="0 0 0 0 0 0 0 0 0 0 0 0 0 0 0 0 0 0 127 0" result="hardAlpha"/>
<feOffset dy="4"/>
<feGaussianBlur stdDeviation="2"/>
<feComposite in2="hardAlpha" operator="out"/>
<feColorMatrix type="matrix" values="0 0 0 0 0 0 0 0 0 0 0 0 0 0 0 0 0 0 0.25 0"/>
<feBlend mode="normal" in2="BackgroundImageFix" result="effect1_dropShadow_2001_7"/>
<feBlend mode="normal" in="SourceGraphic" in2="effect1_dropShadow_2001_7" result="shape"/>
</filter>
<linearGradient id="paint0_linear_2001_7" x1="207.5" y1="412" x2="508.5" y2="122" gradientUnits="userSpaceOnUse">
<stop offset="0.223532" stop-color="#FF00CC"/>
<stop offset="0.70161" stop-color="#B453E6"/>
<stop offset="1" stop-color="#818CF8"/>
</linearGradient>
</defs>
</svg>
